<?xml version="1.0" encoding="UTF-8" standalone="no"?>
<!-- Created with Inkscape (http://www.inkscape.org/) -->

<svg
   xmlns:dc="http://purl.org/dc/elements/1.1/"
   xmlns:cc="http://creativecommons.org/ns#"
   xmlns:rdf="http://www.w3.org/1999/02/22-rdf-syntax-ns#"
   xmlns:svg="http://www.w3.org/2000/svg"
   xmlns="http://www.w3.org/2000/svg"
   version="1.1"
   width="892.91339"
   height="211.53543"
   id="svg6347">
  <defs
     id="defs6349" />
  <metadata
     id="metadata6352">
    <rdf:RDF>
      <cc:Work
         rdf:about="">
        <dc:format>image/svg+xml</dc:format>
        <dc:type
           rdf:resource="http://purl.org/dc/dcmitype/StillImage" />
        <dc:title></dc:title>
      </cc:Work>
    </rdf:RDF>
  </metadata>
  <g
     transform="translate(70.047542,-380.72423)"
     id="layer1">
    <g
       transform="matrix(2.5616043,0,0,2.5616043,-889.75526,-657.64324)"
       id="g6428">
      <g
         transform="matrix(1.25,0,0,-1.25,422.6729,443.5171)"
         id="g3537">
        <path
           d="m 0,0 -2.404,0 0,2.33 7.221,0 0,-2.33 -2.406,0 0,-10.651 -2.411,0 L 0,0 z"
           id="path3539"
           style="fill:#114781;fill-opacity:1;fill-rule:nonzero;stroke:none" />
      </g>
      <g
         transform="matrix(1.25,0,0,-1.25,434.38415,447.77496)"
         id="g3541">
        <path
           d="M 0,0 1.423,0 C 2.054,0 3.479,0.106 3.479,1.702 3.479,3.3 2.054,3.406 1.423,3.406 L 0,3.406 0,0 z m -2.409,5.736 3.638,0 c 4.165,0 4.659,-2.823 4.659,-4.05 0,-1.632 -0.881,-4.016 -4.659,-4.016 l -1.229,0 0,-4.915 -2.409,0 0,12.981"
           id="path3543"
           style="fill:#114781;fill-opacity:1;fill-rule:nonzero;stroke:none" />
      </g>
      <g
         transform="matrix(1.25,0,0,-1.25,451.4504,449.7251)"
         id="g3545">
        <path
           d="M 0,0 -1.479,3.789 -2.955,0 0,0 z m -2.443,7.296 1.932,0 5.414,-12.98 -2.65,0 -1.341,3.353 -4.776,0 -1.341,-3.353 -2.651,0 5.413,12.98 z"
           id="path3547"
           style="fill:#114781;fill-opacity:1;fill-rule:nonzero;stroke:none" />
      </g>
      <g
         transform="matrix(1.25,0,0,-1.25,460.32292,440.60459)"
         id="g3549">
        <path
           d="m 0,0 2.403,0 0,-5.209 4.749,0 0,5.209 2.409,0 0,-12.981 -2.409,0 0,5.439 -4.749,0 0,-5.439 -2.403,0 L 0,0 z"
           id="path3551"
           style="fill:#114781;fill-opacity:1;fill-rule:nonzero;stroke:none" />
      </g>
      <g
         transform="matrix(1.25,0,0,-1.25,488.12789,445.25235)"
         id="g3553">
        <path
           d="m 0,0 c -0.651,0.827 -1.723,1.61 -3.266,1.61 -2.603,0 -4.408,-2.099 -4.408,-4.381 0,-2.44 1.928,-4.472 4.425,-4.472 1.155,0 2.325,0.453 3.129,1.507 l 2.793,0 c -1.074,-2.281 -3.165,-3.841 -5.993,-3.841 -4.551,0 -6.765,3.824 -6.765,6.806 0,2.894 2.2,6.719 6.799,6.719 2.691,0 4.938,-1.457 6.032,-3.948 L 0,0 z"
           id="path3555"
           style="fill:#114781;fill-opacity:1;fill-rule:nonzero;stroke:none" />
      </g>
      <g
         transform="matrix(1.25,0,0,-1.25,494.03665,440.60459)"
         id="g3557">
        <path
           d="m 0,0 3.261,0 3.624,-9.93 3.619,9.93 3.27,0 0,-12.981 -2.408,0 0,9.72 -3.462,-9.72 -2.038,0 -3.464,9.72 0,-9.72 -2.402,0 L 0,0 z"
           id="path3559"
           style="fill:#114781;fill-opacity:1;fill-rule:nonzero;stroke:none" />
      </g>
      <g
         transform="matrix(1.25,0,0,-1.25,523.8179,449.7251)"
         id="g3561">
        <path
           d="M 0,0 -1.48,3.789 -2.953,0 0,0 z m -2.444,7.296 1.932,0 5.414,-12.98 -2.658,0 -1.33,3.353 -4.785,0 -1.33,-3.353 -2.656,0 5.413,12.98 z"
           id="path3563"
           style="fill:#114781;fill-opacity:1;fill-rule:nonzero;stroke:none" />
      </g>
      <g
         transform="matrix(1.25,0,0,-1.25,535.69916,440.60459)"
         id="g3565">
        <path
           d="m 0,0 0,-10.645 3.968,0 0,10.645 2.407,0 0,-10.645 3.972,0 0,10.645 2.407,0 0,-12.981 -15.164,0 L -2.41,0 0,0 z"
           id="path3567"
           style="fill:#114781;fill-opacity:1;fill-rule:nonzero;stroke:none" />
      </g>
      <g
         transform="matrix(1.25,0,0,-1.25,559.96166,448.71609)"
         id="g3569">
        <path
           d="m 0,0 -4.481,6.489 2.81,0 3.078,-4.506 3.091,4.506 2.812,0 L 2.813,0 7.31,-6.492 l -2.812,0 -3.091,4.493 -3.078,-4.493 -2.81,0 L 0,0 z"
           id="path3571"
           style="fill:#114781;fill-opacity:1;fill-rule:nonzero;stroke:none" />
      </g>
      <g
         transform="matrix(1.25,0,0,-1.25,584.2354,448.73807)"
         id="g3573">
        <path
           d="m 0,0 c 0,2.424 -1.902,4.398 -4.446,4.398 -2.547,0 -4.45,-1.974 -4.45,-4.398 0,-2.457 1.916,-4.455 4.431,-4.455 C -1.885,-4.455 0,-2.422 0,0 m 2.4,-0.052 c 0,-3.758 -2.987,-6.736 -6.846,-6.736 -3.867,0 -6.855,2.978 -6.855,6.736 0,3.753 2.972,6.788 6.855,6.788 3.882,0 6.846,-3.035 6.846,-6.788"
           id="path3575"
           style="fill:#114781;fill-opacity:1;fill-rule:nonzero;stroke:none" />
      </g>
      <g
         transform="matrix(1.25,0,0,-1.25,603.54416,456.83071)"
         id="g3577">
        <path
           d="M 0,0 -2.65,0 -6.198,9.649 -9.75,0 l -2.65,0 5.147,12.981 2.105,0 L 0,0 z"
           id="path3579"
           style="fill:#114781;fill-opacity:1;fill-rule:nonzero;stroke:none" />
      </g>
      <g
         transform="matrix(1.25,0,0,-1.25,618.11667,453.91083)"
         id="g3581">
        <path
           d="M 0,0 -3.211,7.314 -6.429,0 0,0 z m 2.652,0 1.215,0 0,-2.336 -2.407,0 -9.381,0 -2.407,0 0,2.336 1.251,0 4.811,10.645 2.109,0 L 2.652,0 z"
           id="path3583"
           style="fill:#114781;fill-opacity:1;fill-rule:nonzero;stroke:none" />
      </g>
      <g
         transform="matrix(1.25,0,0,-1.25,628.68415,440.60459)"
         id="g3585">
        <path
           d="M 0,0 0,-9.121 5.796,0 l 2.409,0 0,-12.981 -2.409,0 0,9.122 -5.796,-9.122 -2.406,0 L -2.406,0 0,0 z"
           id="path3587"
           style="fill:#114781;fill-opacity:1;fill-rule:nonzero;stroke:none" />
      </g>
      <g
         transform="matrix(1.25,0,0,-1.25,643.03165,440.60459)"
         id="g3589">
        <path
           d="m 0,0 2.407,0 0,-5.209 4.744,0 0,5.209 2.405,0 0,-12.981 -2.405,0 0,5.439 -4.744,0 0,-5.439 -2.407,0 L 0,0 z"
           id="path3591"
           style="fill:#114781;fill-opacity:1;fill-rule:nonzero;stroke:none" />
      </g>
      <g
         transform="matrix(1.25,0,0,-1.25,659.06165,440.60459)"
         id="g3593">
        <path
           d="m 0,0 6.503,0 0,-2.33 -4.096,0 0,-10.651 -2.407,0 L 0,0 z"
           id="path3595"
           style="fill:#114781;fill-opacity:1;fill-rule:nonzero;stroke:none" />
      </g>
      <g
         transform="matrix(1.25,0,0,-1.25,400.07415,436.79409)"
         id="g3597">
        <path
           d="m 0,0 c -0.051,0.15 -0.195,0.261 -0.365,0.261 l -10.945,0 c -0.209,0 -0.381,-0.172 -0.381,-0.386 l 0.028,-0.142 c 0.932,-2.36 1.448,-4.928 1.448,-7.619 0,-11.449 -9.3,-20.734 -20.77,-20.734 -3.96,0 -7.657,1.108 -10.805,3.03 l -0.065,0.108 0.129,0.126 10.256,0 c 0.953,0 2.374,0.077 3.287,0.224 8.332,1.338 14.698,8.55 14.698,17.246 0,2.854 -0.688,5.545 -1.899,7.921 -0.06,0.132 -0.197,0.226 -0.351,0.226 l -6.736,0 c -0.209,0 -0.381,-0.172 -0.381,-0.386 0,-0.101 0.038,-0.197 0.107,-0.266 l 0.007,-0.004 c 1.805,-1.98 2.904,-4.604 2.904,-7.491 0,-5.259 -3.656,-9.668 -8.573,-10.829 -0.827,-0.197 -2.19,-0.303 -3.5,-0.303 l -28.49,0 c -0.212,0 -0.382,-0.169 -0.382,-0.381 l 0.024,-0.139 c 4.664,-11.865 16.236,-20.263 29.77,-20.263 17.655,0 31.972,14.289 31.972,31.915 C 0.987,-5.164 0.642,-2.525 0,0"
           id="path3599"
           style="fill:#114781;fill-opacity:1;fill-rule:nonzero;stroke:none" />
      </g>
      <g
         transform="matrix(1.25,0,0,-1.25,322.61228,456.50171)"
         id="g3601">
        <path
           d="m 0,0 c 0.051,-0.154 0.195,-0.263 0.365,-0.263 l 10.942,0 c 0.215,0 0.384,0.169 0.384,0.381 l -0.026,0.145 c -0.936,2.358 -1.446,4.929 -1.446,7.617 0,11.453 9.296,20.736 20.766,20.736 3.96,0 7.658,-1.11 10.809,-3.027 l 0.058,-0.11 -0.122,-0.128 -10.256,0 c -0.955,0 -2.379,-0.077 -3.292,-0.221 C 19.85,23.791 13.487,16.577 13.487,7.88 c 0,-2.851 0.685,-5.541 1.899,-7.918 0.062,-0.133 0.192,-0.225 0.351,-0.225 l 6.732,0 c 0.214,0 0.384,0.169 0.384,0.381 0,0.107 -0.041,0.201 -0.108,0.269 l -0.003,0.006 c -1.805,1.977 -2.906,4.603 -2.906,7.487 0,5.265 3.655,9.67 8.571,10.834 0.825,0.196 2.194,0.3 3.504,0.3 l 28.486,0 c 0.214,0 0.386,0.17 0.386,0.38 l -0.028,0.142 C 56.091,31.4 44.523,39.801 30.985,39.801 13.33,39.801 -0.985,25.509 -0.985,7.88 -0.985,5.163 -0.643,2.518 0,0"
           id="path3603"
           style="fill:#2a97db;fill-opacity:1;fill-rule:nonzero;stroke:none" />
      </g>
    </g>
  </g>
</svg>
